<?xml version='1.0' encoding='iso-8859-1'?>
<svg version="1.1" xmlns="http://www.w3.org/2000/svg" viewBox="0 0 246.709 246.709" xmlns:xlink="http://www.w3.org/1999/xlink" enable-background="new 0 0 246.709 246.709">
  <path d="m193.301,63.928c0-12.068-8.765-24.284-25.517-24.284-0.826,0-1.663,0.03-2.51,0.09 6.382-9.467 5.535-17.687 4.435-21.793-2.785-10.396-12.76-17.941-23.718-17.941-8.159,0-17.194,4.45-22.645,15.684-5.449-11.234-14.484-15.684-22.644-15.684-10.956,0-20.929,7.545-23.715,17.94-1.101,4.106-1.947,12.326 4.434,21.793-10.872-0.767-20.014,3.618-24.764,11.846-4.333,7.506-4.332,17.205 0.002,24.709 4.378,7.58 12.485,11.927 22.244,11.927 0.003,0 0.006,0 0.008,0 0.826,0 1.662-0.03 2.509-0.09-6.384,9.469-5.535,17.69-4.434,21.797 2.786,10.395 12.757,17.937 23.711,17.936 0.002,0 0.005,0 0.006,0 3.337-0.001 6.818-0.762 10.144-2.411v33.946h-42.534v28.634h7.884l9.033,38.726h-16.917v19.957h110.068v-19.957h-16.917l9.033-38.726h7.884v-28.634h-42.534v-33.878c3.132,1.533 6.555,2.344 10.146,2.343 10.956,0 20.93-7.546 23.715-17.941 1.1-4.105 1.947-12.324-4.434-21.791 0.848,0.06 1.685,0.09 2.511,0.09 16.751-0.002 25.516-12.22 25.516-24.288zm-69.954,20.033c-11.063,0-20.032-8.969-20.032-20.032s8.969-20.032 20.032-20.032 20.032,8.969 20.032,20.032-8.969,20.032-20.032,20.032z"/>
</svg>
